HIERARCHY
ROOT Hips
{
    OFFSET   0.000000   0.000000   0.000000
    CHANNELS 6 Xposition Yposition Zposition Zrotation Xrotation Yrotation
    JOINT Chest
    {
        OFFSET   0.000000   8.007230   0.000000
        CHANNELS 3 Zrotation Xrotation Yrotation
        JOINT Chest2
        {
            OFFSET   0.000000  22.077100   0.000000
            CHANNELS 3 Zrotation Xrotation Yrotation
            JOINT Neck
            {
                OFFSET   0.000000  23.254800   0.000000
                CHANNELS 3 Zrotation Xrotation Yrotation
                JOINT Head
                {
                    OFFSET   0.000010  14.370000   1.956600
                    CHANNELS 3 Zrotation Xrotation Yrotation
                    End Site
                    {
                        OFFSET   0.000000  19.566000   0.000000
                    }
                }
            }
            JOINT LeftCollar
            {
                OFFSET   3.911900  19.017000  -0.467062
                CHANNELS 3 Zrotation Xrotation Yrotation
                JOINT LeftShoulder
                {
                    OFFSET  10.383700   0.000000   0.000000
                    CHANNELS 3 Zrotation Xrotation Yrotation
                    JOINT LeftElbow
                    {
                        OFFSET  26.662100   0.001193   0.000835
                        CHANNELS 3 Zrotation Xrotation Yrotation
                        JOINT LeftWrist
                        {
                            OFFSET  28.869000  -0.000058  -0.000075
                            CHANNELS 3 Zrotation Xrotation Yrotation
                            JOINT LeftFinger0
                            {
                                OFFSET   2.044660  -2.323460   3.252850
                                CHANNELS 3 Zrotation Xrotation Yrotation
                                JOINT LeftFinger01
                                {
                                    OFFSET   3.088130   0.000000   0.000000
                                    CHANNELS 3 Zrotation Xrotation Yrotation
                                    JOINT LeftFinger02
                                    {
                                        OFFSET   2.639450   0.000000   0.000000
                                        CHANNELS 3 Zrotation Xrotation Yrotation
                                        End Site
                                        {
                                            OFFSET   2.582190   0.000000   0.000000
                                        }
                                    }
                                }
                            }
                            JOINT LeftFinger1
                            {
                                OFFSET   8.364480   0.000000   3.252850
                                CHANNELS 3 Zrotation Xrotation Yrotation
                                JOINT LeftFinger11
                                {
                                    OFFSET   4.646920   0.000000   0.000000
                                    CHANNELS 3 Zrotation Xrotation Yrotation
                                    JOINT LeftFinger12
                                    {
                                        OFFSET   2.323460   0.000000   0.000000
                                        CHANNELS 3 Zrotation Xrotation Yrotation
                                        End Site
                                        {
                                            OFFSET   2.273050   0.000000   0.000000
                                        }
                                    }
                                }
                            }
                            JOINT LeftFinger2
                            {
                                OFFSET   8.364490   0.000016   1.078090
                                CHANNELS 3 Zrotation Xrotation Yrotation
                                JOINT LeftFinger21
                                {
                                    OFFSET   5.111620   0.000000   0.000000
                                    CHANNELS 3 Zrotation Xrotation Yrotation
                                    JOINT LeftFinger22
                                    {
                                        OFFSET   2.788150   0.000012   0.000000
                                        CHANNELS 3 Zrotation Xrotation Yrotation
                                        End Site
                                        {
                                            OFFSET   2.727660   0.000000   0.000000
                                        }
                                    }
                                }
                            }
                            JOINT LeftFinger3
                            {
                                OFFSET   7.899780   0.000014  -1.078090
                                CHANNELS 3 Zrotation Xrotation Yrotation
                                JOINT LeftFinger31
                                {
                                    OFFSET   4.646930   0.000000   0.000000
                                    CHANNELS 3 Zrotation Xrotation Yrotation
                                    JOINT LeftFinger32
                                    {
                                        OFFSET   2.323470   0.000000   0.000000
                                        CHANNELS 3 Zrotation Xrotation Yrotation
                                        End Site
                                        {
                                            OFFSET   2.273050   0.000000   0.000000
                                        }
                                    }
                                }
                            }
                            JOINT LeftFinger4
                            {
                                OFFSET   7.435090   0.000000  -3.252850
                                CHANNELS 3 Zrotation Xrotation Yrotation
                                JOINT LeftFinger41
                                {
                                    OFFSET   3.717550   0.000000   0.000000
                                    CHANNELS 3 Zrotation Xrotation Yrotation
                                    JOINT LeftFinger42
                                    {
                                        OFFSET   1.858770   0.000000   0.000000
                                        CHANNELS 3 Zrotation Xrotation Yrotation
                                        End Site
                                        {
                                            OFFSET   1.818440   0.000000   0.000000
                                        }
                                    }
                                }
                            }
                        }
                    }
                }
            }
            JOINT RightCollar
            {
                OFFSET  -3.911900  19.017000  -0.467063
                CHANNELS 3 Zrotation Xrotation Yrotation
                JOINT RightShoulder
                {
                    OFFSET -10.383700   0.000023   0.000000
                    CHANNELS 3 Zrotation Xrotation Yrotation
                    JOINT RightElbow
                    {
                        OFFSET -26.662100   0.001246   0.001011
                        CHANNELS 3 Zrotation Xrotation Yrotation
                        JOINT RightWrist
                        {
                            OFFSET -28.869000  -0.000026  -0.000078
                            CHANNELS 3 Zrotation Xrotation Yrotation
                            JOINT RightFinger0
                            {
                                OFFSET  -2.044660  -2.323490   3.252850
                                CHANNELS 3 Zrotation Xrotation Yrotation
                                JOINT RightFinger01
                                {
                                    OFFSET  -3.088130   0.000000   0.000000
                                    CHANNELS 3 Zrotation Xrotation Yrotation
                                    JOINT RightFinger02
                                    {
                                        OFFSET  -2.639460   0.000000   0.000000
                                        CHANNELS 3 Zrotation Xrotation Yrotation
                                        End Site
                                        {
                                            OFFSET  -2.582190   0.000000   0.000000
                                        }
                                    }
                                }
                            }
                            JOINT RightFinger1
                            {
                                OFFSET  -8.364480   0.000000   3.252850
                                CHANNELS 3 Zrotation Xrotation Yrotation
                                JOINT RightFinger11
                                {
                                    OFFSET  -4.646920   0.000000   0.000000
                                    CHANNELS 3 Zrotation Xrotation Yrotation
                                    JOINT RightFinger12
                                    {
                                        OFFSET  -2.323470   0.000000   0.000000
                                        CHANNELS 3 Zrotation Xrotation Yrotation
                                        End Site
                                        {
                                            OFFSET  -2.273050   0.000000   0.000000
                                        }
                                    }
                                }
                            }
                            JOINT RightFinger2
                            {
                                OFFSET  -8.364480   0.000000   1.078090
                                CHANNELS 3 Zrotation Xrotation Yrotation
                                JOINT RightFinger21
                                {
                                    OFFSET  -5.111620   0.000000   0.000000
                                    CHANNELS 3 Zrotation Xrotation Yrotation
                                    JOINT RightFinger22
                                    {
                                        OFFSET  -2.788160   0.000000   0.000000
                                        CHANNELS 3 Zrotation Xrotation Yrotation
                                        End Site
                                        {
                                            OFFSET  -2.727660   0.000000   0.000000
                                        }
                                    }
                                }
                            }
                            JOINT RightFinger3
                            {
                                OFFSET  -7.899780   0.000000  -1.078090
                                CHANNELS 3 Zrotation Xrotation Yrotation
                                JOINT RightFinger31
                                {
                                    OFFSET  -4.646930   0.000000   0.000000
                                    CHANNELS 3 Zrotation Xrotation Yrotation
                                    JOINT RightFinger32
                                    {
                                        OFFSET  -2.323470   0.000000   0.000000
                                        CHANNELS 3 Zrotation Xrotation Yrotation
                                        End Site
                                        {
                                            OFFSET  -2.273050   0.000000   0.000000
                                        }
                                    }
                                }
                            }
                            JOINT RightFinger4
                            {
                                OFFSET  -7.435090   0.000000  -3.252850
                                CHANNELS 3 Zrotation Xrotation Yrotation
                                JOINT RightFinger41
                                {
                                    OFFSET  -3.717550   0.000000   0.000000
                                    CHANNELS 3 Zrotation Xrotation Yrotation
                                    JOINT RightFinger42
                                    {
                                        OFFSET  -1.858760   0.000000   0.000000
                                        CHANNELS 3 Zrotation Xrotation Yrotation
                                        End Site
                                        {
                                            OFFSET  -1.818440   0.000000   0.000000
                                        }
                                    }
                                }
                            }
                        }
                    }
                }
            }
        }
    }
    JOINT LeftHip
    {
        OFFSET   9.783010   0.000000   0.000000
        CHANNELS 3 Zrotation Xrotation Yrotation
        JOINT LeftKnee
        {
            OFFSET   0.000073 -41.789100   0.001749
            CHANNELS 3 Zrotation Xrotation Yrotation
            JOINT LeftAnkle
            {
                OFFSET   0.000111 -41.133200  -0.000179
                CHANNELS 3 Zrotation Xrotation Yrotation
                JOINT LeftToe
                {
                    OFFSET   0.000000  -6.358960  14.674500
                    CHANNELS 3 Zrotation Xrotation Yrotation
                    End Site
                    {
                        OFFSET   0.000000   0.000000   3.913200
                    }
                }
            }
        }
    }
    JOINT RightHip
    {
        OFFSET  -9.783010   0.000000   0.000000
        CHANNELS 3 Zrotation Xrotation Yrotation
        JOINT RightKnee
        {
            OFFSET   0.000424 -41.789200   0.005205
            CHANNELS 3 Zrotation Xrotation Yrotation
            JOINT RightAnkle
            {
                OFFSET   0.000000 -41.133200  -0.000155
                CHANNELS 3 Zrotation Xrotation Yrotation
                JOINT RightToe
                {
                    OFFSET   0.000000  -6.358960  14.674500
                    CHANNELS 3 Zrotation Xrotation Yrotation
                    End Site
                    {
                        OFFSET   0.000000   0.000000   3.913200
                    }
                }
            }
        }
    }
}
MOTION
Frames: 6
Frame Time:   0.016667
  0.939199  89.295500  -0.436654   0.300439 -20.901000  12.409400  -1.647580  11.054600   1.841720  -3.770750  22.043600   4.131930   5.877070  -0.423614   0.042403   9.656950  -0.831822  -2.069500  -1.958650  -1.820230   0.499116 -67.313300  20.743600 -16.233800   2.317890   6.296310 -21.285300  17.023400  -5.747940   1.375550  42.581100  36.595100 -50.962600 -31.165100  -0.001336  -0.000721 -10.582600  -0.002585  -0.001507 -35.993900   8.641800 -11.710200 -30.158300   0.001475  -0.004169 -21.110900   0.002266   0.001212 -30.929900  -0.068968   0.112993 -46.394600  -0.003925  -0.000442 -30.898800   0.002992   0.012169 -29.928300  -0.068095   0.114352 -44.892200  -0.004290   0.003364 -29.898200  -0.002141   0.001592 -37.936900  -0.497034   0.637516 -56.910100  -0.006736   0.001202 -37.902100   0.000845  -0.000234   5.115810  -5.993000   6.029930  -5.245800 -10.590400  33.613000 -12.691200  13.791800   7.489380  -9.632940  -4.941750  16.280400 -39.336200  47.383200  70.091500  47.840400   0.005195  -0.005746  24.621000  -0.000565  -0.003955  85.993000   4.985770   0.351232  70.370200   0.003821  -0.001474  52.777700   0.005194  -0.002877  89.000000   0.005152  -0.000767  92.462600   0.000277  -0.000402  69.347000  -0.000113  -0.000528  88.996000  -4.998730  -0.090082  98.803500   0.002262  -0.000688  74.102600  -0.001480   0.000613  88.985700 -10.000400  -0.170028 110.003000  -0.001755   0.001327  80.000000   0.001521  -0.009760   2.100620  19.954100   0.332260   0.992298   0.399063   0.452077  -1.332700  -0.801366  -7.170930   0.000000   0.000000  -0.000000   5.819880  16.256300  -5.862120  -0.697202  12.734900 -23.978100   1.227900  -8.879280  -0.063159  -0.000000   0.000000  -0.000000
  1.048500  89.268700  -0.375299   0.684088 -20.835100  13.295600  -1.628800  11.052700   1.687580  -3.701990  22.045900   3.810880   5.732410  -0.355023   0.035660   9.418620  -0.698433  -2.144610  -1.916410  -1.786440   0.580073 -67.145400  21.110000 -16.110900   2.131230   5.807900 -21.297700  16.679700  -4.874320   1.402600  42.465800  36.581800 -51.102000 -31.393300  -0.001335  -0.000705 -10.696700  -0.002595  -0.001495 -35.920800   8.923550 -12.108100 -30.161700   0.001483  -0.004167 -21.113200   0.002259   0.001263 -30.752800  -0.096268   0.158553 -46.129000  -0.003921  -0.000441 -30.722000   0.002995   0.012161 -29.910300  -0.095396   0.160027 -44.865300  -0.004288   0.003365 -29.880300  -0.002144   0.001590 -37.895800  -0.486054   0.620975 -56.849400  -0.006739   0.001202 -37.861700   0.000846  -0.000234   5.171010  -5.955110   6.047960  -5.021020 -10.806100  33.598400 -13.042000  13.900500   7.635280  -9.583280  -5.112140  16.304400 -39.057000  47.000900  69.151400  47.982000   0.005917  -0.006556  24.845600  -0.000573  -0.003147  87.070000   4.986140   0.255505  71.248100   0.003682  -0.001532  53.436100   0.005167  -0.002776  89.000000   0.004872  -0.000733  92.894500   0.000361  -0.000318  69.670900  -0.000133  -0.000597  88.996000  -4.998710  -0.090140  99.183300   0.002235  -0.000777  74.387500  -0.001688   0.000561  88.985700 -10.000300  -0.169952 110.003000  -0.001701   0.001279  80.000000   0.001492  -0.009927   2.202590  20.078000   0.165147   0.710514   0.081747   0.365217  -1.635310  -0.617571  -7.720130  -0.000000   0.000000  -0.000000   5.643620  16.356800  -5.882980  -0.562936  12.673900 -24.500500   1.234480  -8.981070  -0.328875  -0.000000   0.000000   0.000000
  1.138670  89.250800  -0.312867   0.999821 -20.782500  13.980800  -1.628270  11.049200   1.591680  -3.679860  22.042000   3.613890   5.642810  -0.308178   0.035175   9.269410  -0.606693  -2.297400  -1.894850  -1.773410   0.663360 -66.809200  21.778600 -16.204100   1.941670   5.329930 -20.966200  16.342600  -4.053880   1.492570  42.228400  36.322700 -50.812500 -31.535000  -0.001331  -0.000735 -10.767600  -0.002593  -0.001497 -35.666300   8.604540 -11.775800 -29.901500   0.001480  -0.004164 -20.931000   0.002262   0.001314 -30.517400  -0.129163   0.216274 -45.776300  -0.003922  -0.000444 -30.487100   0.002993   0.012152 -29.648900  -0.126489   0.218634 -44.471000  -0.004288   0.003363 -29.617700  -0.002143   0.001589 -37.548500  -0.410856   0.526906 -56.327700  -0.006738   0.001200 -37.514300   0.000846  -0.000234   5.237320  -5.923350   6.081010  -4.776760 -11.036100  33.600400 -13.257800  13.462900   7.585160  -9.563520  -5.179770  16.324900 -39.288000  47.415400  69.558900  48.134200   0.006631  -0.007456  25.038900  -0.000545  -0.002319  87.250200   4.987330   0.239313  71.394900   0.003565  -0.001641  53.546300   0.005122  -0.002698  89.000000   0.004588  -0.000697  93.067600   0.000414  -0.000242  69.800800  -0.000178  -0.000698  88.996000  -4.998680  -0.090193  99.293600   0.002193  -0.000950  74.470300  -0.002002   0.000509  88.985700 -10.000200  -0.169873 110.003000  -0.001652   0.001235  80.000000   0.001468  -0.010101   2.254780  20.067000   0.009343   0.476027   0.114747   0.333717  -1.940940  -0.610144  -8.153680   0.000000   0.000000   0.000000   5.480400  16.437600  -6.023860  -0.487084  12.652800 -24.781600   1.255280  -9.085760  -0.562048  -0.000000   0.000000  -0.000000
  1.216280  89.243900  -0.252797   1.253790 -20.746000  14.490000  -1.639450  11.046900   1.555590  -3.696470  22.038500   3.541120   5.590940  -0.287352   0.035105   9.185490  -0.565589  -2.475190  -1.887220  -1.768380   0.738440 -66.476600  22.416500 -16.340500   1.763350   4.941750 -20.349300  16.054800  -3.322790   1.616200  41.853100  35.882700 -50.313000 -31.623900  -0.001329  -0.000765 -10.812000  -0.002591  -0.001499 -35.254100   8.153480 -11.339700 -29.499700   0.001476  -0.004163 -20.649700   0.002266   0.001366 -30.269900  -0.148581   0.251000 -45.405300  -0.003925  -0.000447 -30.240000   0.002991   0.012144 -29.273100  -0.144480   0.254023 -43.907700  -0.004288   0.003362 -29.242600  -0.002141   0.001589 -37.048300  -0.300260   0.391138 -55.575200  -0.006738   0.001198 -37.013100   0.000845  -0.000234   5.298070  -5.896300   6.103750  -4.565770 -11.263100  33.624200 -13.328900  13.027000   7.478550  -9.556830  -5.199790  16.336500 -39.599700  47.918100  70.256000  48.266600   0.007340  -0.008340  25.154300  -0.000476  -0.001484  87.275900   4.988520   0.237001  71.415900   0.003443  -0.001752  53.562000   0.005059  -0.002623  89.000000   0.004294  -0.000656  93.119800   0.000461  -0.000154  69.839900  -0.000229  -0.000776  88.996000  -4.998650  -0.090239  99.309400   0.002142  -0.001122  74.482100  -0.002232   0.000457  88.985700 -10.000100  -0.169799 110.003000  -0.001604   0.001188  80.000000   0.001443  -0.010277   2.291830  20.055900  -0.125237   0.298072   0.147747   0.329218  -2.222110  -0.602856  -8.486360   0.000000   0.000000  -0.000000   5.334580  16.503700  -6.229840  -0.461393  12.655800 -24.865500   1.263080  -9.181950  -0.769059  -0.000000   0.000000   0.000000
  1.287270  89.245900  -0.198123   1.432700 -20.732400  14.824500  -1.650230  11.052100   1.560140  -3.720980  22.048500   3.552300   5.566400  -0.292060   0.035205   9.147350  -0.575091  -2.652280  -1.904560  -1.761580   0.774546 -66.254500  22.634600 -16.525200   1.597430   4.815460 -19.656100  15.931100  -2.851330   1.769870  41.598600  35.500400 -49.815100 -31.663300  -0.001331  -0.000747 -10.831700  -0.002588  -0.001493 -34.903700   7.951060 -11.216400 -29.201700   0.001479  -0.004169 -20.441100   0.002260   0.001421 -30.065100  -0.142684   0.243239 -45.098100  -0.003925  -0.000445 -30.035400   0.002992   0.012135 -29.008100  -0.138086   0.246116 -43.523400  -0.004289   0.003363 -28.986600  -0.002142   0.001589 -36.648600  -0.205392   0.272462 -54.974100  -0.006739   0.001198 -36.612800   0.000843  -0.000233   5.345470  -5.874490   6.090780  -4.458970 -11.441200  33.692000 -13.264700  13.055500   7.286480  -9.624770  -4.801370  16.325600 -39.556700  48.024100  70.825600  48.336000   0.008041  -0.009116  25.168100  -0.000376  -0.000658  86.870000   4.989140   0.272128  71.085000   0.003314  -0.001870  53.313800   0.004977  -0.002552  88.963900   0.003988  -0.000601  92.910100   0.000509  -0.000048  69.682600  -0.000283  -0.000821  88.996000  -4.998610  -0.090275  99.074200   0.002088  -0.001292  74.305600  -0.002394   0.000402  88.985700 -10.000100  -0.169736 110.003000  -0.001548   0.001134  80.000000   0.001409  -0.010457   2.257350  20.118100  -0.187541   0.208822   0.072944   0.329572  -2.449340  -0.516199  -8.713640  -0.000000   0.000000   0.000000   5.230570  16.559300  -6.422060  -0.481836  12.674600 -24.799000   1.236360  -9.257730  -0.986097   0.000000   0.000000  -0.000000
  1.353410  89.253500  -0.152549   1.559090 -20.732200  15.029500  -1.659270  11.062300   1.568570  -3.740720  22.068200   3.572730   5.562910  -0.303017   0.035470   9.139650  -0.596999  -2.800250  -1.937250  -1.757820   0.799105 -66.148700  22.659100 -16.642500   1.448490   4.815270 -18.939000  15.907300  -2.656660   1.929640  41.346100  35.142600 -49.404200 -31.686700  -0.001334  -0.000730 -10.843400  -0.002587  -0.001487 -34.707600   7.879760 -11.197600 -29.029000   0.001482  -0.004175 -20.320300   0.002255   0.001474 -29.911900  -0.118907   0.205350 -44.868000  -0.003925  -0.000442 -29.882100   0.002994   0.012126 -28.872500  -0.114355   0.207670 -43.328800  -0.004290   0.003365 -28.857000  -0.002143   0.001591 -36.391100  -0.127592   0.173933 -54.586800  -0.006740   0.001198 -36.354800   0.000842  -0.000232   5.366380  -5.843390   6.077710  -4.381120 -11.571100  33.765200 -13.188200  13.143800   7.153300  -9.730150  -4.174030  16.305900 -39.469600  47.983800  71.154600  48.358300   0.008730  -0.009826  25.170100  -0.000245   0.000141  86.251500   4.989350   0.325879  70.580900   0.003177  -0.001994  52.935700   0.004882  -0.002479  88.927800   0.003672  -0.000544  92.555700   0.000555   0.000063  69.416800  -0.000343  -0.000850  88.996000  -4.998570  -0.090303  98.684100   0.002029  -0.001465  74.013000  -0.002496   0.000346  88.985800  -9.999960  -0.169684 110.003000  -0.001491   0.001077  80.000000   0.001374  -0.010633   2.162460  20.204200  -0.221075   0.185293  -0.001859   0.332056  -2.623610  -0.388322  -8.863820  -0.000000   0.000000   0.000000   5.137390  16.609400  -6.536890  -0.510253  12.688700 -24.731900   1.206210  -9.311670  -1.174840  -0.000000   0.000000   0.000000
